<svg xmlns="http://www.w3.org/2000/svg" viewBox="0 0 500 500"><g id="freepik--background-complete--inject-46"><polygon points="329.93 260.7 330.21 278.13 473.69 278.13 473.69 260.7 329.93 260.7" style="fill:#ebebeb"></polygon><path d="M336.18,273.67l19,178.91a7.21,7.21,0,0,0,7.17,6.45H455l8.62-185.36Z" style="fill:#ebebeb"></path><circle cx="441.79" cy="451.27" r="31.78" transform="translate(-92.34 788.21) rotate(-77.85)" style="fill:#e0e0e0"></circle><path d="M469.69,278.29c0,.14-31.09.26-69.42.26s-69.43-.12-69.43-.26,31.08-.26,69.43-.26S469.69,278.14,469.69,278.29Z" style="fill:#e0e0e0"></path><path d="M473.69,260.62c0,.14-32.05.26-71.57.26s-71.58-.12-71.58-.26,32-.26,71.58-.26S473.69,260.48,473.69,260.62Z" style="fill:#e0e0e0"></path><circle cx="441.79" cy="451.27" r="21.87" transform="translate(-88.54 794.17) rotate(-78.49)" style="fill:#ebebeb"></circle><path d="M404.74,337.94s7.77,2.27,6.28,11.08-6.28,10.1-6.28,10.1l10.85,4.42,10.85-2.17,4.33-3.88s-6.5-3.76-6.73-11.07,2.91-8,4.23-9.18-7.43-3-7.43-3l-7.65-.8Z" style="fill:#f5f5f5"></path><path d="M403.54,338.38c1.62-5.74,8-8.94,13.53-9s11.81,3.08,13.07,8.2a6.09,6.09,0,0,0-7.65,3.64,4.19,4.19,0,0,0-7.32-1,11.05,11.05,0,0,0-11.63-1.8" style="fill:#e0e0e0"></path><path d="M419.45,324c0,.08-.46.28-1,.86a5.43,5.43,0,0,0-1.37,2.75,12,12,0,0,0-.08,3.18,4.45,4.45,0,0,1,0,1.36,3.25,3.25,0,0,1-.4-1.32,9,9,0,0,1-.06-3.32,5,5,0,0,1,1.64-2.92C418.87,324,419.44,323.94,419.45,324Z" style="fill:#e0e0e0"></path><path d="M414.78,351.23a11.82,11.82,0,0,1,0-4.93,11.82,11.82,0,0,1,0,4.93Z" style="fill:#e0e0e0"></path><path d="M419.58,350.77a9.74,9.74,0,0,1,0-4.47,9.74,9.74,0,0,1,0,4.47Z" style="fill:#e0e0e0"></path><path d="M404.12,357.88s2,9.67,13.95,9.28,13.36-9.94,13.36-9.94-1.39,2.76-5.79,0c0,0-4.66,5.73-9.81-.39C415.83,356.83,410.44,361.63,404.12,357.88Z" style="fill:#e0e0e0"></path><path d="M300,227.62a24.92,24.92,0,0,1,5.74-7.08L287.4,210a7.54,7.54,0,0,1-2.58-2.05,2.55,2.55,0,0,1,0-3.07,3.57,3.57,0,0,1,2.95-.72,37.46,37.46,0,0,1,10.46,2.25c-1.46-2.28-2.92-4.57-4.39-6.85-.61-.95-1.23-2.19-.61-3.14s2-.89,3.14-.57a14.37,14.37,0,0,1,9.71,10,53,53,0,0,1,1.59-15.1c.35-1.4.89-2.94,2.21-3.53a3.38,3.38,0,0,1,3.84,1.22,8.88,8.88,0,0,1,1.5,4,50.17,50.17,0,0,1-2.32,25.89c3.66.26,7.28,2.25,10.41,4.37a103.65,103.65,0,0,1,29.13,29.84s15.2,25.65-3.94,40.07c-6.12,4.61-12.76,4-20.42,4.06s-15.77,1.74-23.16-.28c-5.9-1.62-12.17-3.5-16.09-8.2-5.1-6.1-4.7-15-3.21-22.83A115.76,115.76,0,0,1,300,227.62Z" style="fill:#e0e0e0"></path><polygon points="159.11 274.7 158.85 290.91 25.48 290.91 25.48 274.7 159.11 274.7" style="fill:#ebebeb"></polygon><path d="M153.3,286.76,135.62,453.07a6.71,6.71,0,0,1-6.67,6H42.82l-8-172.3Z" style="fill:#ebebeb"></path><circle cx="55.13" cy="451.85" r="29.54" style="fill:#e0e0e0"></circle><path d="M29.2,291.05c0-.14,28.89-.26,64.53-.26s64.53.12,64.53.26-28.89.26-64.53.26S29.2,291.2,29.2,291.05Z" style="fill:#e0e0e0"></path><circle cx="55.13" cy="451.85" r="20.33" transform="translate(-104.13 25.42) rotate(-13.52)" style="fill:#ebebeb"></circle><polygon points="59.14 266.36 69.37 252.72 119.38 252.72 132.79 266.36 59.14 266.36" style="fill:#ebebeb"></polygon><polygon points="75.82 377 75.82 335.1 81.63 327.78 81.63 323.49 98.79 323.49 98.79 328.29 104.47 333.97 104.47 377 75.82 377" style="fill:#e0e0e0"></polygon><rect x="78.07" y="344.04" width="14.32" height="20.53" style="fill:#fff"></rect><path d="M95.44,377a1.51,1.51,0,0,1,0-.5c0-.39,0-.87,0-1.44,0-1.33,0-3.13-.08-5.31-.05-4.47-.08-10.66-.08-17.49,0-6.58,0-12.55.07-17v-.05l0,0,2.53-5.05c.28-.55.52-1,.71-1.36a1.93,1.93,0,0,1,.28-.46,2,2,0,0,1-.18.5L98,330.2c-.6,1.28-1.4,3-2.38,5.12l0-.08c0,4.47,0,10.44.07,17,0,6.83,0,13-.08,17.49,0,2.18-.06,4-.08,5.31,0,.57,0,1.05-.05,1.44A1.51,1.51,0,0,1,95.44,377Z" style="fill:#f5f5f5"></path><path d="M95.2,335.24a94.7,94.7,0,0,1-9.85.26,94.82,94.82,0,0,1-9.86-.26,91.6,91.6,0,0,1,9.86-.26A91.48,91.48,0,0,1,95.2,335.24Z" style="fill:#f5f5f5"></path><path d="M98.79,327.61a73.52,73.52,0,0,1-8.83.26,73.76,73.76,0,0,1-8.84-.26,76.35,76.35,0,0,1,8.84-.26A76.1,76.1,0,0,1,98.79,327.61Z" style="fill:#f5f5f5"></path><polygon points="20.46 277.06 26.8 262.31 157.31 263.02 164.26 277.06 20.46 277.06" style="fill:#ebebeb"></polygon><path d="M24.24,277.06c0-.14,31.35-.26,70-.26s70,.12,70,.26-31.34.26-70,.26S24.24,277.21,24.24,277.06Z" style="fill:#e0e0e0"></path><path d="M157.31,263c0,.15-29.21.1-65.23-.09s-65.23-.48-65.23-.62,29.2-.1,65.24.1S157.31,262.88,157.31,263Z" style="fill:#e0e0e0"></path><rect x="350.76" y="137.3" width="48.65" height="12.87" style="fill:#ebebeb"></rect><path d="M378.84,163.73s0-.09,0-.24l0-.66c0-.6,0-1.45,0-2.53,0-2.22,0-5.42-.09-9.44l.15.15-48.64.09.24-.24h0v6.52q0,3.22,0,6.33l-.24-.24,34.67.11,10.24.06,2.76,0h.73l.25,0h-.22l-.69,0-2.72,0-10.18.07-34.84.11H330V157.4c0-1.08,0-2.16,0-3.25v-3.27h0c.5-.5.14-.14.26-.25l48.64.1H379v.15c0,4.06-.07,7.29-.09,9.53,0,1.07,0,1.9,0,2.5,0,.26,0,.47,0,.63A.85.85,0,0,1,378.84,163.73Z" style="fill:#e0e0e0"></path><rect x="68.36" y="30.9" width="48.65" height="12.87" style="fill:#ebebeb"></rect><path d="M96.44,57.33a1.35,1.35,0,0,1,0-.24v-.66c0-.6,0-1.45,0-2.53,0-2.22-.05-5.42-.08-9.44l.15.15-48.65.1c.11-.12-.25.24.24-.25h0V57.33l-.24-.24,34.67.11,10.23.07,2.77,0h.72l.26,0h-.23l-.69,0-2.72,0-10.17.07-34.84.11h-.25V44.48h0l.25-.25,48.65.1h.15v.15c0,4.06-.06,7.29-.08,9.53,0,1.07,0,1.9,0,2.5,0,.26,0,.47,0,.63A1.66,1.66,0,0,1,96.44,57.33Z" style="fill:#e0e0e0"></path><path d="M443.08,57.35a2.07,2.07,0,0,1,0-.23l0-.66c0-.61,0-1.45,0-2.53,0-2.22,0-5.42-.08-9.45l.15.15-48.65.1.25-.25h0V51q0,3.23,0,6.33l-.24-.24,34.67.11,10.23.07,2.77,0,.73,0h.25s-.07,0-.22,0l-.7,0-2.71,0-10.18.07-34.84.11h-.24v-.25c0-2.07,0-4.18,0-6.33V44.49h0c.5-.49.14-.13.25-.24l48.65.09h.15v.15c0,4.07-.06,7.29-.08,9.54,0,1.07,0,1.9,0,2.5v.63C443.09,57.29,443.09,57.36,443.08,57.35Z" style="fill:#e0e0e0"></path><path d="M449.68,44.48a1.22,1.22,0,0,1,0-.24c0-.19,0-.41,0-.68,0-.64,0-1.5,0-2.58,0-2.26-.06-5.45-.1-9.37l.18.18-29.23.07c-.22.22.3-.3.24-.25h0v6.62c0,2.16,0,4.24,0,6.24l-.23-.23,20.91.11,6.09.06,1.64,0,.59,0a3.28,3.28,0,0,1-.53,0l-1.6,0-6,.07-21.07.11h-.24v-.24c0-2,0-4.08,0-6.24V31.62h0l.25-.25,29.23.07h.18v.18c0,4-.08,7.19-.1,9.47,0,1.07,0,1.92,0,2.54S449.69,44.5,449.68,44.48Z" style="fill:#e0e0e0"></path><path d="M258.27,371a1,1,0,0,1,0-.23v-.66c0-.61,0-1.45,0-2.54,0-2.22-.05-5.41-.08-9.44l.15.15-48.65.1c.11-.11-.25.24.24-.25h0V371l-.25-.24,34.68.11,10.23.07,2.77,0H258l.26,0-.23,0h-.69l-2.72,0-10.18.07-34.84.11h-.24V358.19h0l.25-.25,48.65.1h.15v.15c0,4.07-.07,7.29-.09,9.53,0,1.07,0,1.9,0,2.5l0,.64A1.23,1.23,0,0,1,258.27,371Z" style="fill:#e0e0e0"></path><path d="M264.86,358.17s0-.09,0-.25v-.68c0-.63,0-1.49-.05-2.58,0-2.26,0-5.44-.1-9.36l.18.18-29.23.07.25-.25h0v6.61c0,2.15,0,4.24,0,6.24l-.24-.24,20.91.12,6.09.06,1.65,0,.58,0a3.28,3.28,0,0,1-.53,0l-1.59,0-6,.06-21.07.12h-.23v-6.48c0-1.08,0-2.17,0-3.28v-3.33h0l.25-.25,29.23.07H265v.18c0,4-.07,7.19-.09,9.47,0,1.07,0,1.92-.05,2.54A4.88,4.88,0,0,1,264.86,358.17Z" style="fill:#e0e0e0"></path><path d="M83.58,165.15a1.35,1.35,0,0,1,0-.24c0-.17,0-.39,0-.66,0-.6,0-1.45,0-2.53,0-2.22-.05-5.42-.08-9.44l.15.15-48.65.09.24-.24h0v12.85l-.24-.25L69.6,165l10.23.07,2.77,0h.72l.26,0h-.23l-.69,0-2.72,0-10.17.07-34.84.11h-.25V152.3h0l.25-.25,48.65.1h.15v.15c0,4.06-.06,7.29-.08,9.53,0,1.07,0,1.9,0,2.5,0,.26,0,.47,0,.63A1.66,1.66,0,0,1,83.58,165.15Z" style="fill:#e0e0e0"></path><path d="M308.67,74a2.07,2.07,0,0,1,0-.23l0-.66c0-.61,0-1.45,0-2.54,0-2.22-.05-5.41-.09-9.44l.15.15L260,61.4l.25-.25h0v6.52q0,3.23,0,6.33l-.24-.24,34.67.11,10.24.07,2.76,0,.73,0h.25s-.07,0-.22,0h-.69l-2.72,0-10.18.07L260,74.26h-.24V67.69c0-1.07,0-2.16,0-3.25V61.17h0l.25-.25,48.65.1h.16v.15c0,4.07-.07,7.29-.09,9.53,0,1.07,0,1.91,0,2.5l0,.64C308.68,74,308.68,74,308.67,74Z" style="fill:#e0e0e0"></path></g><g id="freepik--Floor--inject-46"><path d="M488.42,483.18c0,.14-106.76.26-238.41.26s-238.43-.12-238.43-.26,106.73-.26,238.43-.26S488.42,483,488.42,483.18Z" style="fill:#263238"></path></g><g id="freepik--trash-can--inject-46"><path d="M384.42,250.47a24.19,24.19,0,0,0-5.55-6.84l17.69-10.19a7.24,7.24,0,0,0,2.49-2,2.44,2.44,0,0,0,0-3,3.49,3.49,0,0,0-2.85-.7A36.47,36.47,0,0,0,386.1,230l4.24-6.62c.59-.92,1.19-2.12.6-3s-2-.86-3-.55a13.91,13.91,0,0,0-9.39,9.63,51.68,51.68,0,0,0-1.53-14.6c-.34-1.35-.87-2.84-2.14-3.41a3.27,3.27,0,0,0-3.71,1.18,8.33,8.33,0,0,0-1.45,3.89,48.37,48.37,0,0,0,2.24,25c-3.54.25-7,2.18-10.07,4.23a100,100,0,0,0-28.15,28.85s-14.7,24.8,3.8,38.74c5.92,4.45,12.92,7.43,20.32,7.46s14.67-1.86,21.81-3.81c5.71-1.56,11.76-3.39,15.56-7.93,4.93-5.89,4.54-14.52,3.1-22.07A112.11,112.11,0,0,0,384.42,250.47Z" style="fill:#263238"></path><polygon points="268.32 261.52 268.59 278.95 412.08 278.95 412.08 261.52 268.32 261.52" style="fill:#FF725E"></polygon><path d="M273.1,274.24l19,178.91a7.21,7.21,0,0,0,7.17,6.45H392l8.63-185.36Z" style="fill:#FF725E"></path><circle cx="380.18" cy="452.1" r="31.78" transform="translate(-142.53 727.23) rotate(-77.7)" style="fill:#263238"></circle><polygon points="439.13 128.52 395.15 267.06 410.22 262.48 448.88 145.49 439.13 128.52" style="fill:#FF725E"></polygon><polygon points="438.36 177.33 445.33 185.09 429.18 230.47 419.89 233.22 438.36 177.33" style="fill:#FF725E"></polygon><path d="M313.52,348.66s-3.89,3.87-2.1,8,7.65,12.05,7.65,12.05a31.66,31.66,0,0,1,6.21-13.38l3.49,1.93L325,342.54l-14.15,4.19Z" style="fill:#fff"></path><path d="M320.8,371.81a8.08,8.08,0,0,0,5.59,3.77c4,.68,12.67.18,12.67.18l-.16-13.13-15.23.19A16.84,16.84,0,0,0,320.8,371.81Z" style="fill:#fff"></path><path d="M356.89,328.39s-1.21-5.34-5.66-6-14.28.07-14.28.07a31.64,31.64,0,0,1,8,12.38l-3.49,1.93L356,341.38l4-14.22Z" style="fill:#fff"></path><path d="M333.41,322.25a8,8,0,0,0-6.16,2.73c-2.69,3-6.89,10.63-6.89,10.63l11.2,6.85,7.95-13A16.85,16.85,0,0,0,333.41,322.25Z" style="fill:#fff"></path><path d="M354.94,375.64s5.33,1.29,7.92-2.4,6.26-12.83,6.26-12.83a31.61,31.61,0,0,1-14.65,1.71l-.19-4-10.57,10.92,11,9.86Z" style="fill:#fff"></path><path d="M370.85,357.31a8.07,8.07,0,0,0,.28-6.74c-1.5-3.73-6.49-10.88-6.49-10.88l-11.09,7,8.13,12.88A16.85,16.85,0,0,0,370.85,357.31Z" style="fill:#fff"></path><circle cx="380.19" cy="452.93" r="17.71" style="fill:#455a64"></circle><path d="M407.07,279c0,.15-31,.26-69.24.26s-69.24-.11-69.24-.26,31-.26,69.24-.26S407.07,278.81,407.07,279Z" style="fill:#263238"></path><path d="M411.07,261.52c0,.14-32,.26-71.37.26s-71.38-.12-71.38-.26,31.95-.26,71.38-.26S411.07,261.37,411.07,261.52Z" style="fill:#263238"></path><path d="M412.84,254.65c-.14-.05,7.74-24.27,17.61-54.11s18-54,18.1-53.94-7.75,24.26-17.61,54.11S413,254.69,412.84,254.65Z" style="fill:#263238"></path><g style="opacity:0.30000000000000004"><path d="M400.81,279c-18.07,1.2-36.7,4.25-54.77,5.44-23.7,1.57-48.26,3-70.45-5.44Z"></path></g></g><g id="freepik--Plant--inject-46"><path d="M235.67,434.16a9.22,9.22,0,0,1,5.6,4.64,16.36,16.36,0,0,1,1.78,7.19c.21,4.82-1.73,10-4,14.26-4.53-2.86-6.41-8.78-7.17-11.84-1.2-4.85-.43-14.33,3.82-14.25" style="fill:#455a64"></path><path d="M244.88,467.33a7.92,7.92,0,0,1,1.36-7.84,10.5,10.5,0,0,1,7.29-3.59,4.4,4.4,0,0,1,3.6,1,3.37,3.37,0,0,1,.58,3.38,6.81,6.81,0,0,1-2.12,2.87c-3.11,2.71-6.62,4.76-10.71,4.2" style="fill:#455a64"></path><path d="M242.05,482.65a4.57,4.57,0,0,1,0-1c0-.7,0-1.61.07-2.7a27.5,27.5,0,0,1,1.39-8.82,17,17,0,0,1,5-7.36,11.5,11.5,0,0,1,2.29-1.47,6.73,6.73,0,0,1,.68-.29c.15-.06.24-.09.24-.07a17.31,17.31,0,0,0-3,2,17.5,17.5,0,0,0-4.85,7.29,29.81,29.81,0,0,0-1.48,8.71c-.07,1.14-.12,2.06-.18,2.7A5.41,5.41,0,0,1,242.05,482.65Z" style="fill:#263238"></path><path d="M235.73,441.43a2.12,2.12,0,0,1,.11.42c.07.31.16.71.26,1.21.23,1.05.53,2.57.89,4.46.72,3.77,1.64,9,2.52,14.8s1.57,11.06,2,14.87c.22,1.91.39,3.46.49,4.52,0,.51.08.92.11,1.24a2,2,0,0,1,0,.43,2.26,2.26,0,0,1-.08-.43c-.05-.31-.11-.72-.18-1.22-.14-1.11-.35-2.64-.59-4.51-.51-3.8-1.23-9.06-2.11-14.85s-1.77-11-2.42-14.81c-.32-1.85-.59-3.37-.78-4.48-.08-.5-.15-.9-.2-1.22A1.39,1.39,0,0,1,235.73,441.43Z" style="fill:#263238"></path><path d="M238.44,471.3a18.52,18.52,0,0,0-12.11-11.84c-1.43-.43-3.23-.58-4.17.59s-.42,2.9.33,4.2a15.85,15.85,0,0,0,15.91,7.45" style="fill:#455a64"></path><path d="M227.68,463.84a6,6,0,0,1,.91.24,9.28,9.28,0,0,1,1,.36c.4.17.86.32,1.34.57a17.3,17.3,0,0,1,1.56.83c.55.31,1.11.7,1.69,1.11a20.35,20.35,0,0,1,3.38,3.18,20.59,20.59,0,0,1,2.52,3.9,18.56,18.56,0,0,1,.77,1.87,16.46,16.46,0,0,1,.51,1.69,12.09,12.09,0,0,1,.29,1.43,7.23,7.23,0,0,1,.14,1.09,4.09,4.09,0,0,1,0,.93c-.08,0-.15-1.33-.71-3.38a15.87,15.87,0,0,0-.54-1.66,18.39,18.39,0,0,0-.79-1.83,20.79,20.79,0,0,0-2.5-3.82,21.41,21.41,0,0,0-3.3-3.14c-.57-.41-1.11-.81-1.65-1.12s-1.05-.61-1.52-.86C229,464.28,227.66,463.92,227.68,463.84Z" style="fill:#263238"></path></g><g id="freepik--Character--inject-46"><path d="M167.76,442.41l-1.41,26s25.93,10.16,26.14,15L142,482.44l.55-40.57Z" style="fill:#455a64"></path><path d="M150.78,465.91a2.07,2.07,0,0,0-1.47,2.33,2,2,0,0,0,2.3,1.47,2.18,2.18,0,0,0,1.54-2.47,2.07,2.07,0,0,0-2.56-1.27" style="fill:#e0e0e0"></path><g style="opacity:0.6000000000000001"><path d="M142,482.44l.22-4.08,48.31,2.42s2.23,1,2,2.6Z" style="fill:#fff"></path></g><path d="M167.17,468.15c0,.24-1.25.33-2.47,1.1s-1.9,1.8-2.12,1.69.17-1.51,1.67-2.42S167.23,467.92,167.17,468.15Z" style="fill:#263238"></path><path d="M172.42,470.43c.06.24-1,.64-1.88,1.67s-1.11,2.13-1.36,2.11-.38-1.41.71-2.67S172.42,470.2,172.42,470.43Z" style="fill:#263238"></path><path d="M175.31,476.83c-.22,0-.54-1.19.12-2.53s1.82-1.86,1.92-1.65-.63.92-1.15,2S175.56,476.81,175.31,476.83Z" style="fill:#263238"></path><path d="M166.84,462.19c-.11.22-1.24-.14-2.63-.07s-2.49.49-2.61.27.93-1.07,2.58-1.13S167,462,166.84,462.19Z" style="fill:#263238"></path><path d="M150.83,442.75l-1,26s26.1,9.74,26.38,14.56l-50.48-.11-.12-40.57Z" style="fill:#455a64"></path><path d="M134.24,466.53a2,2,0,0,0-1.43,2.35,2,2,0,0,0,2.31,1.44,2.18,2.18,0,0,0,1.51-2.5,2.06,2.06,0,0,0-2.58-1.23" style="fill:#e0e0e0"></path><g style="opacity:0.6000000000000001"><path d="M125.74,483.2l.15-4.09,48.34,1.64s2.25,1,2,2.56Z" style="fill:#fff"></path></g><path d="M150.66,468.49c0,.25-1.24.36-2.45,1.15s-1.87,1.82-2.09,1.73.14-1.53,1.63-2.46S150.72,468.27,150.66,468.49Z" style="fill:#263238"></path><path d="M156,470.7c.06.23-1,.65-1.85,1.69s-1.08,2.14-1.33,2.13-.4-1.4.67-2.68S156,470.46,156,470.7Z" style="fill:#263238"></path><path d="M158.94,477c-.22,0-.56-1.18.08-2.53s1.79-1.88,1.89-1.68-.61.93-1.12,2S159.19,477,158.94,477Z" style="fill:#263238"></path><path d="M150.23,462.54c-.1.23-1.23-.11-2.63,0s-2.48.53-2.61.31.92-1.08,2.56-1.17S150.35,462.35,150.23,462.54Z" style="fill:#263238"></path><path d="M105.39,257.05l1.71,20.48,12.15,79.34s-.2,39-.48,61c-.24,19.13,5.5,51.92,5.5,51.92l32-2.66L158.56,356l1.38-69.33,9.76-32.32Z" style="fill:#263238"></path><path d="M193,360.44l-3.09-99a5.3,5.3,0,0,0-5.2-5.13l-34.33-.65A5.3,5.3,0,0,0,145,261l2.1,188.49a5.29,5.29,0,0,0,4.49,5.17l19.13,1.64L191.66,371A33.4,33.4,0,0,0,193,360.44Z" style="fill:#263238"></path><path d="M159.92,287.48a2.28,2.28,0,0,1,.05.46c0,.33.05.79.09,1.36.06,1.23.15,3,.27,5.23.25,4.55.47,11.13.69,19.26.38,16.26.44,38.75-.32,63.56s-1.93,47.27-2.82,63.52c-.47,8.09-.85,14.65-1.11,19.23-.14,2.24-.25,4-.33,5.23,0,.57-.08,1-.1,1.35a2.93,2.93,0,0,1-.06.47,2.79,2.79,0,0,1,0-.47c0-.33,0-.79,0-1.36.05-1.23.12-3,.22-5.23.22-4.58.53-11.15.92-19.25.78-16.24,1.92-38.69,2.64-63.5s.77-47.28.49-63.54c-.16-8.13-.31-14.71-.49-19.26-.07-2.25-.12-4-.16-5.23,0-.58,0-1,0-1.37A3.26,3.26,0,0,1,159.92,287.48Z" style="fill:#455a64"></path><path d="M149.56,92.09l-5.17,47.82c-1,8.14-2.56,20.21,10.4,21.28h0c11.32.08,15.51-10.15,16.48-17.75.46-3.61.85-6.62.92-7,0,0,12.34.42,14.78-11.53,1.17-5.78,2.63-17.88,3.81-28.85a22.71,22.71,0,0,0-18.35-24.76l-1.15-.22C158.67,69.44,150.86,79.44,149.56,92.09Z" style="fill:#ffccb3"></path><path d="M172.22,136.46a29.52,29.52,0,0,1-14.73-7.59s2.14,9.48,14.31,10.68Z" style="fill:#ff9a6a"></path><path d="M170.2,99.45c-.27,0-1.37-1-3.27-1.75s-3.52-.76-3.67-1,.25-.24,1-.24a8.57,8.57,0,0,1,3,.62,7.8,7.8,0,0,1,2.53,1.55C170.24,99.13,170.33,99.43,170.2,99.45Z" style="fill:#263238"></path><path d="M168.84,103.67A1.67,1.67,0,0,1,167,105a1.58,1.58,0,0,1-1.39-1.78,1.65,1.65,0,0,1,1.87-1.34A1.59,1.59,0,0,1,168.84,103.67Z" style="fill:#263238"></path><path d="M173.32,113.33a11.93,11.93,0,0,1,3.09,0c.48,0,.94,0,1.08-.27a2.44,2.44,0,0,0,0-1.46c-.23-1.22-.47-2.5-.71-3.84-1-5.47-1.56-9.93-1.34-10s1.18,4.37,2.14,9.83c.22,1.35.44,2.63.64,3.86a2.71,2.71,0,0,1-.11,1.89,1.16,1.16,0,0,1-.9.54,3,3,0,0,1-.82,0A11.61,11.61,0,0,1,173.32,113.33Z" style="fill:#263238"></path><path d="M169.9,91c-.25.42-1.83-.1-3.78-.23s-3.59.12-3.77-.34c-.08-.22.27-.6,1-.92a6.39,6.39,0,0,1,5.75.43C169.73,90.33,170,90.75,169.9,91Z" style="fill:#263238"></path><path d="M188.69,96.94c-.26.34-1.79-.25-3.7-.53s-3.52-.22-3.68-.63c-.07-.19.29-.48,1-.7a6.89,6.89,0,0,1,2.88-.14,7,7,0,0,1,2.74,1C188.53,96.38,188.8,96.77,188.69,96.94Z" style="fill:#263238"></path><path d="M148.84,101.32c-.21-.13-8.27-4-9.41,4.7s7.82,8,7.87,7.79S148.84,101.32,148.84,101.32Z" style="fill:#ffccb3"></path><path d="M145.07,110.17s-.16.09-.43.17a1.59,1.59,0,0,1-1.14-.12c-.87-.46-1.45-2-1.29-3.59a5,5,0,0,1,.71-2.11,1.76,1.76,0,0,1,1.29-1,.78.78,0,0,1,.84.53c.08.26,0,.42,0,.44s.21-.12.18-.49a1,1,0,0,0-.27-.59,1.18,1.18,0,0,0-.81-.33,2.14,2.14,0,0,0-1.75,1.14,5.25,5.25,0,0,0-.85,2.36c-.17,1.75.51,3.51,1.72,4a1.62,1.62,0,0,0,1.41,0C145,110.38,145.1,110.19,145.07,110.17Z" style="fill:#ff9a6a"></path><path d="M173,119.13c0-.23-1.64-.45-3-1.77a10.29,10.29,0,0,1-1.49-2c-.33-.56-.58-.9-.66-.86s0,.44.24,1.07a6.27,6.27,0,0,0,1.46,2.23,4.88,4.88,0,0,0,2.36,1.27C172.52,119.25,173,119.2,173,119.13Z" style="fill:#263238"></path><path d="M187.94,101c-.22.17-1.69-.14-3.7.22s-3.41,1.15-3.65,1.06.1-.31.71-.68a8.77,8.77,0,0,1,2.9-1,8.07,8.07,0,0,1,3,0C187.81,100.77,188,101,187.94,101Z" style="fill:#263238"></path><path d="M185.43,106.07a1.65,1.65,0,0,1-1.87,1.34,1.58,1.58,0,0,1-1.39-1.78,1.65,1.65,0,0,1,1.87-1.34A1.58,1.58,0,0,1,185.43,106.07Z" style="fill:#263238"></path><path d="M208.4,87.13a2,2,0,0,0-.78-1.25,6,6,0,0,0-3-.86,17.65,17.65,0,0,1-7.34-2.77,9,9,0,0,0,2.41-1.31,5.21,5.21,0,0,0,2.08-5,1.15,1.15,0,0,0-.55-.86c-.52-.23-1.05.24-1.47.62A4.5,4.5,0,0,1,195.31,77a7.45,7.45,0,0,1-3-1.29l-.09-.13-1.11-1.42h0c-2.75-3.44-5.18-5.89-7.8-7.31-3.84-2.09-10.51-3.53-14.84-2.92s-8.5,3.59-9.58,7.83c-2.13-2.27-5.67-2.66-8.67-1.84l-.07,0c-3.33.77-5.54,3.93-6.86,7.08l-.21.53a12.87,12.87,0,0,1-4.79,3.7c-.33.14-.71.32-.78.67a1,1,0,0,0,.44.92,6.4,6.4,0,0,0,2.47,1.37,15.1,15.1,0,0,1-1.32,2.13c-.43.57-.95,1.25-.71,1.92a1.37,1.37,0,0,0,1.34.78,4,4,0,0,0,1.57-.5l-1.37,2.43a7.58,7.58,0,0,0,3.51.18,85.13,85.13,0,0,0,1.18,9.26c1.34.15,2.64,0,3.38.82,1,1.14,1.28,3.09,3.23,2.59,1-.26,2.08-2.14,2.51-3.07A47.47,47.47,0,0,0,158.07,81a15.29,15.29,0,0,1,5.07-2.84l-.16.12c3.51-.78,7.47-1.49,10.48.46,2.35,1.52,3.51,4.27,5.13,6.54A18,18,0,0,0,190.91,93c.05,3.7-.88,8.28-1.09,11.7l3.78-5.12v0a13,13,0,0,0,.75-1.13l.08-.12h0a21.76,21.76,0,0,1,1.18-1.83l0,0a2.14,2.14,0,0,0,3.44-2.48,5.13,5.13,0,0,0-.91-1.16,3.38,3.38,0,0,0,3.1,1.21,2.65,2.65,0,0,0,2.17-2.4,2.23,2.23,0,0,0-1.13-2,7.6,7.6,0,0,0,4.42-.45C207.64,88.93,208.57,88.23,208.4,87.13Z" style="fill:#263238"></path><path d="M162.5,73.59a13.12,13.12,0,0,0-1.34,1,8.79,8.79,0,0,0-2.32,3.8,15.2,15.2,0,0,0-.67,3c-.13,1.12-.18,2.32-.24,3.58a31.35,31.35,0,0,1-.37,4,14.4,14.4,0,0,1-.51,2.06A4.32,4.32,0,0,1,156,92.93a1.83,1.83,0,0,1-1.77.38,2.77,2.77,0,0,1-1.44-1,6.24,6.24,0,0,1-.8-3.2l.25.06a10.19,10.19,0,0,1-1.77,2.36,3.65,3.65,0,0,1-2.5,1,2.43,2.43,0,0,1-1.22-.37,2,2,0,0,1-.75-.93,2.1,2.1,0,0,1-.13-1.1,1.45,1.45,0,0,1,.5-.89l.11.12A7.74,7.74,0,0,1,143.62,91a7.14,7.14,0,0,1-.84.22,1.53,1.53,0,0,1-.3,0,1.32,1.32,0,0,1,.29-.09c.19,0,.47-.13.82-.26a8.08,8.08,0,0,0,2.74-1.68l.11.13a1.54,1.54,0,0,0-.29,1.78,1.82,1.82,0,0,0,.68.83,2.11,2.11,0,0,0,1.11.31,3.36,3.36,0,0,0,2.32-1A9.87,9.87,0,0,0,152,89l.22-.37,0,.43A6.07,6.07,0,0,0,153,92.1a2.49,2.49,0,0,0,1.29.94,1.56,1.56,0,0,0,1.5-.32,4.15,4.15,0,0,0,1-1.81,13.16,13.16,0,0,0,.51-2,32.54,32.54,0,0,0,.38-3.94c.07-1.26.12-2.47.27-3.6a15.73,15.73,0,0,1,.71-3.07,8.6,8.6,0,0,1,2.44-3.81A5.11,5.11,0,0,1,162.5,73.59Z" style="fill:#455a64"></path><path d="M198.52,89.69l-.11.07-.33.18a3.13,3.13,0,0,1-.55.27,4.55,4.55,0,0,1-.78.3,10.72,10.72,0,0,1-5.28.34,13.88,13.88,0,0,1-7-3.54,23.9,23.9,0,0,1-5.42-8c-.71-1.57-1.26-3.15-1.88-4.63a16.47,16.47,0,0,0-2.28-4,8.29,8.29,0,0,0-3.23-2.52,6.31,6.31,0,0,0-1.82-.42,6.39,6.39,0,0,0-1.71.13,7,7,0,0,0-2.7,1.22,7.33,7.33,0,0,0-1.57,1.61,8.16,8.16,0,0,0-.83,1.74s0,0,0-.12.06-.22.1-.37a6.26,6.26,0,0,1,.62-1.31A7,7,0,0,1,165.35,69a7.1,7.1,0,0,1,2.75-1.3,6.87,6.87,0,0,1,1.78-.15,6.09,6.09,0,0,1,1.88.43,8.38,8.38,0,0,1,3.35,2.57,16.16,16.16,0,0,1,2.33,4c.64,1.49,1.18,3.07,1.88,4.62a23.89,23.89,0,0,0,5.35,7.87,13.7,13.7,0,0,0,6.84,3.54,10.93,10.93,0,0,0,5.21-.24A17.94,17.94,0,0,0,198.52,89.69Z" style="fill:#455a64"></path><path d="M200.23,84.51a2.7,2.7,0,0,1-.47.25,9.54,9.54,0,0,1-1.36.5,12.46,12.46,0,0,1-2.1.43,13.54,13.54,0,0,1-2.64,0,14,14,0,0,1-2.6-.48,13.27,13.27,0,0,1-2-.77,9.87,9.87,0,0,1-1.25-.72c-.28-.2-.43-.31-.42-.33s.66.38,1.76.87a15.09,15.09,0,0,0,2,.7,15.69,15.69,0,0,0,2.55.45,15.88,15.88,0,0,0,2.59,0,14.13,14.13,0,0,0,2.08-.36C199.52,84.77,200.21,84.46,200.23,84.51Z" style="fill:#455a64"></path><path d="M89.62,177.94s14.09-43.23,30.71-42.31l24.6-.73s4.71,12.56,13.74,13.42,12.6-4.88,12.6-4.88S197,153.6,200.16,164.36s.76,39.46.76,39.46l-17.63-.92,1.09,23,8.75,44.57-88.74,1.75,2.5-69,2.71-19.76Z" style="fill:#455a64"></path><path d="M115,153.71a5.33,5.33,0,0,1-.16,1.34c-.19,1-.41,2.19-.67,3.62-.57,3.05-1.35,7.27-2.13,11.94s-1.42,8.92-1.87,12c-.22,1.43-.4,2.65-.55,3.64a6,6,0,0,1-.28,1.33,5.66,5.66,0,0,1,0-1.36c.06-.87.18-2.12.35-3.67.34-3.09.91-7.35,1.69-12s1.64-8.89,2.32-11.93c.34-1.52.64-2.74.86-3.58A5.88,5.88,0,0,1,115,153.71Z" style="fill:#263238"></path><path d="M183.29,202.9s-1,18.32,6.27,23.5c3.38,2.4,18.62,2.35,18.62,2.35l-7.26-24.93Z" style="fill:#ffccb3"></path><g style="opacity:0.30000000000000004"><path d="M183.88,216a288.48,288.48,0,0,0,7.33-34.29c-2.4,3.91-5,12.66-7.07,18.4-1.6,4.49-.81,9.25-.25,15.49"></path></g><path d="M193.13,177.16a33.67,33.67,0,0,1-1.57,3.86c-1,2.36-2.38,5.63-3.77,9.3s-2.54,7-3.34,9.46a32.3,32.3,0,0,1-1.39,3.93,4.08,4.08,0,0,1,.19-1.11c.16-.7.42-1.71.78-2.95.7-2.48,1.78-5.87,3.17-9.55s2.84-6.94,4-9.26c.56-1.16,1-2.09,1.37-2.73A3.85,3.85,0,0,1,193.13,177.16Z" style="fill:#263238"></path><path d="M168.9,219.66a5.94,5.94,0,0,1-1,1c-.68.61-1.69,1.48-2.94,2.53-2.5,2.11-6,4.95-10,8s-7.64,5.67-10.34,7.53c-1.34.93-2.44,1.66-3.21,2.16a6.85,6.85,0,0,1-1.24.72,6.47,6.47,0,0,1,1.1-.92l3.1-2.32c2.62-2,6.25-4.64,10.21-7.67s7.52-5.8,10.09-7.82l3.06-2.38A7.15,7.15,0,0,1,168.9,219.66Z" style="fill:#263238"></path><path d="M250.38,150.18l-12.93-14.46a4.32,4.32,0,0,0-2-1.27l-11.71-3.19a4.27,4.27,0,0,0-3.76.78l-11.32,9a4.28,4.28,0,0,0-1.45,2.2l-10.36,38.1a4.24,4.24,0,0,0,3,5.21l35.67,9.7a4.23,4.23,0,0,0,5.2-3l10.66-39.17A4.23,4.23,0,0,0,250.38,150.18Zm-6.17,4.8a3.13,3.13,0,0,1-4.42-.25l-8.22-9.19a3.12,3.12,0,0,1,.25-4.41h0a3.13,3.13,0,0,1,4.41.24l8.22,9.2A3.13,3.13,0,0,1,244.21,155Z" style="fill:#455a64"></path><rect x="224.25" y="128.86" width="11.47" height="4.04" transform="translate(42.42 -55.78) rotate(15.22)" style="fill:#455a64"></rect><rect x="222.25" y="125.83" width="16.41" height="5.42" rx="1.09" transform="translate(41.83 -55.99) rotate(15.22)" style="fill:#263238"></rect><path d="M196.56,178.08A2.21,2.21,0,0,0,195,176a1.6,1.6,0,0,0,1.42-1.89,2.55,2.55,0,0,0-1.37-2.26,1.8,1.8,0,0,0,1.34-2c-.14-1.71-2-1.95-2-1.95s1.71-.14,1.72-1.72-1.81-1.92-1.81-1.92l1.5-1.78-.48-5.83a2.24,2.24,0,0,0-.9-1.6l-5.45-4-6.82.57-1,.08-4.71,4.89a2.25,2.25,0,0,0-.62,1.73l.49,5.83,1.77,1.5s-1.73.64-1.46,2.2a1.82,1.82,0,0,0,2,1.41,2.3,2.3,0,0,0-1.68,2.25,1.81,1.81,0,0,0,1.66,1.79,2.53,2.53,0,0,0-1,2.44,1.61,1.61,0,0,0,1.71,1.64,2.21,2.21,0,0,0-1.19,2.31,2,2,0,0,0,1.5,2l-1.68,2.16,1,12.33a3.59,3.59,0,0,0,3.87,2.24,3.25,3.25,0,0,0,3.15-3s.27,2.69,2.77,2.53l.33,0c2.5-.25,2.32-2.95,2.32-2.95a3.25,3.25,0,0,0,3.61,2.46,3.6,3.6,0,0,0,3.44-2.85l-1-12.34-2-1.85A2,2,0,0,0,196.56,178.08Z" style="fill:#e0e0e0"></path><rect x="180.33" y="147.03" width="9.07" height="4.28" rx="0.64" transform="translate(-11.75 15.87) rotate(-4.76)" style="fill:#263238"></rect><path d="M194.27,164.24a68.26,68.26,0,0,1-8.34.95,67.85,67.85,0,0,1-8.39.44,69.36,69.36,0,0,1,8.34-1A66.57,66.57,0,0,1,194.27,164.24Z" style="fill:#263238"></path><path d="M195.64,162.46a89.48,89.48,0,0,1-9.64,1.07,88.9,88.9,0,0,1-9.68.54A90.34,90.34,0,0,1,186,163,90.51,90.51,0,0,1,195.64,162.46Z" style="fill:#263238"></path><path d="M194.78,168a67.54,67.54,0,0,1-8.29.95,66.71,66.71,0,0,1-8.32.44,66,66,0,0,1,8.28-1A67.89,67.89,0,0,1,194.78,168Z" style="fill:#263238"></path><path d="M195.09,171.72a67.53,67.53,0,0,1-8.28.95,65.64,65.64,0,0,1-8.33.43,70,70,0,0,1,8.28-.95A68,68,0,0,1,195.09,171.72Z" style="fill:#263238"></path><path d="M195.43,175.87a66.87,66.87,0,0,1-8.28.95,65.46,65.46,0,0,1-8.32.43,67.2,67.2,0,0,1,8.28-.95A67.82,67.82,0,0,1,195.43,175.87Z" style="fill:#263238"></path><path d="M195.78,180a67.53,67.53,0,0,1-8.28.95,67.89,67.89,0,0,1-8.33.43,67.54,67.54,0,0,1,8.29-1A65.46,65.46,0,0,1,195.78,180Z" style="fill:#263238"></path><path d="M197.43,182.23a93.9,93.9,0,0,1-9.72,1.07,89.2,89.2,0,0,1-9.77.55,93.9,93.9,0,0,1,9.72-1.07A92.2,92.2,0,0,1,197.43,182.23Z" style="fill:#263238"></path><path d="M218.71,163.18a2.54,2.54,0,0,0-1.61-2.53,1.85,1.85,0,0,0,1.79-2.05,3,3,0,0,0-1.39-2.71,2.08,2.08,0,0,0,1.71-2.22c0-2-2.18-2.41-2.18-2.41s2,0,2.12-1.83-1.92-2.36-1.92-2.36l1.87-1.92-.08-6.74a2.56,2.56,0,0,0-.89-1.91l-5.94-5.09-7.88.09h-1.13l-5.82,5.23a2.58,2.58,0,0,0-.85,1.93l.08,6.74,1.92,1.87s-2,.6-1.87,2.41a2.11,2.11,0,0,0,2.16,1.79,2.66,2.66,0,0,0-2.12,2.45,2.09,2.09,0,0,0,1.76,2.19,2.94,2.94,0,0,0-1.33,2.73,1.86,1.86,0,0,0,1.84,2,2.56,2.56,0,0,0-1.56,2.57,2.33,2.33,0,0,0,1.56,2.41l-2.1,2.35.16,14.26a4.15,4.15,0,0,0,4.26,2.89,3.74,3.74,0,0,0,3.87-3.21s.09,3.11,3,3.13h.38c2.89-.09,2.91-3.21,2.91-3.21a3.74,3.74,0,0,0,3.94,3.13,4.15,4.15,0,0,0,4.19-3l-.17-14.26-2.16-2.3A2.31,2.31,0,0,0,218.71,163.18Z" style="fill:#e0e0e0"></path><path d="M217.23,147.09a91.17,91.17,0,0,1-9.67.37,88.32,88.32,0,0,1-9.67-.15,90.79,90.79,0,0,1,9.67-.37A88.32,88.32,0,0,1,217.23,147.09Z" style="fill:#263238"></path><path d="M219,145.16c0,.15-5,.32-11.17.39s-11.17,0-11.17-.13,5-.32,11.16-.39S218.94,145,219,145.16Z" style="fill:#263238"></path><path d="M217.5,151.41a89.6,89.6,0,0,1-9.59.37,87.31,87.31,0,0,1-9.61-.15,89.89,89.89,0,0,1,9.6-.37A90.14,90.14,0,0,1,217.5,151.41Z" style="fill:#263238"></path><path d="M217.55,155.76a89.6,89.6,0,0,1-9.59.37,90.39,90.39,0,0,1-9.61-.15,86.84,86.84,0,0,1,9.6-.37A87.07,87.07,0,0,1,217.55,155.76Z" style="fill:#263238"></path><path d="M217.61,160.55a86.84,86.84,0,0,1-9.6.37,87.07,87.07,0,0,1-9.6-.15,89.7,89.7,0,0,1,9.6-.37A90.26,90.26,0,0,1,217.61,160.55Z" style="fill:#263238"></path><path d="M217.66,165.35a89.6,89.6,0,0,1-9.59.37,90.14,90.14,0,0,1-9.6-.15,86.38,86.38,0,0,1,9.59-.37A87.07,87.07,0,0,1,217.66,165.35Z" style="fill:#263238"></path><path d="M219.37,168c0,.15-5,.32-11.26.39s-11.26,0-11.26-.13,5-.31,11.26-.39S219.37,167.88,219.37,168Z" style="fill:#263238"></path><rect x="202.43" y="126.53" width="10.45" height="4.93" rx="0.89" transform="translate(-1.48 2.41) rotate(-0.66)" style="fill:#455a64"></rect><path d="M204.08,131.47a5.89,5.89,0,0,1-.31-2.39,5.8,5.8,0,0,1,.2-2.39,5.49,5.49,0,0,1,.32,2.38A5.8,5.8,0,0,1,204.08,131.47Z" style="fill:#263238"></path><path d="M205.85,131.32a5.82,5.82,0,0,1-.31-2.38,5.57,5.57,0,0,1,.21-2.4,11.11,11.11,0,0,1,.1,4.78Z" style="fill:#263238"></path><path d="M207.64,131.39a5.89,5.89,0,0,1-.31-2.39,5.8,5.8,0,0,1,.2-2.39,5.49,5.49,0,0,1,.32,2.38A5.8,5.8,0,0,1,207.64,131.39Z" style="fill:#263238"></path><path d="M209.56,131.3a5.89,5.89,0,0,1-.31-2.39,5.51,5.51,0,0,1,.21-2.39,5.82,5.82,0,0,1,.31,2.38A5.57,5.57,0,0,1,209.56,131.3Z" style="fill:#263238"></path><path d="M211.34,131.25a5.89,5.89,0,0,1-.31-2.39,5.51,5.51,0,0,1,.21-2.39,5.77,5.77,0,0,1,.31,2.38A5.61,5.61,0,0,1,211.34,131.25Z" style="fill:#263238"></path><rect x="163.67" y="171.35" width="88.55" height="12.32" rx="4.3" transform="translate(417.93 352.61) rotate(179.34)" style="fill:#FF725E"></rect><path d="M245.15,181.92l-9.33,83.21a4.77,4.77,0,0,1-4.58,4.22l-47.45,1.52a4.75,4.75,0,0,1-4.88-4.28l-8.36-84.31c-.28-2.78,1.9-5.2,4.11-5.22l65.15-.43C243.24,176.61,245.47,179.09,245.15,181.92Z" style="fill:#FF725E"></path><path d="M191.43,215.14s-2.31,2.29-1.25,4.74a54.38,54.38,0,0,0,4.53,7.15,18.82,18.82,0,0,1,3.68-7.93l2.07,1.14-2.22-8.73L189.85,214Z" style="fill:#fff"></path><path d="M195.73,228.86a4.8,4.8,0,0,0,3.32,2.23,48.54,48.54,0,0,0,7.5.11l-.09-7.78-9,.11A10,10,0,0,0,195.73,228.86Z" style="fill:#fff"></path><path d="M217.13,203.14s-.71-3.17-3.35-3.58a53.47,53.47,0,0,0-8.46,0,18.86,18.86,0,0,1,4.75,7.33L208,208.08l8.58,2.76,2.36-8.43Z" style="fill:#fff"></path><path d="M203.22,199.49a4.81,4.81,0,0,0-3.65,1.62,48.4,48.4,0,0,0-4.08,6.3l6.63,4.06,4.71-7.7A10,10,0,0,0,203.22,199.49Z" style="fill:#fff"></path><path d="M216,231.13s3.16.77,4.69-1.42a53.21,53.21,0,0,0,3.72-7.6,18.75,18.75,0,0,1-8.68,1l-.11-2.36-6.27,6.46,6.5,5.85Z" style="fill:#fff"></path><path d="M225.39,220.28a4.76,4.76,0,0,0,.17-4,48.58,48.58,0,0,0-3.84-6.45L215.14,214l4.82,7.63A10,10,0,0,0,225.39,220.28Z" style="fill:#fff"></path><path d="M233.73,233.78c-.15,0,.84-11.31,2.19-25.24s2.7-25.33,2.71-25.19-.84,11.31-2.19,25.24S233.87,233.8,233.73,233.78Z" style="fill:#263238"></path><path d="M246.3,183.23c0,.15-17,.45-38,.68s-38,.3-38,.16,17-.45,38-.68S246.3,183.09,246.3,183.23Z" style="fill:#263238"></path><path d="M239.66,235.22s6.85,1.27,5.15,10.3c0,0,3.05,8-.95,11.12s-2.12,10.9-6.23,13.08c-2.17,1.16-6.26,2-9.63,2.45a1.91,1.91,0,0,1-1.12-3.6,9.5,9.5,0,0,1,1.11-.49l5-2.26,3.05-7.61-9.19,1.2a3.17,3.17,0,0,1-3.24-1.56c-.54-1-.47-2.3,2-3.37,4.24-1.85,11.42-2.79,11.42-2.79l1.16-8.07s-2.84,2.69-3.7-.3S239.66,235.22,239.66,235.22Z" style="fill:#ffccb3"></path><path d="M241.24,239.49a2.8,2.8,0,0,1-.35,1.41,7.73,7.73,0,0,1-2,2.83,5.12,5.12,0,0,1-1.68,1,2.11,2.11,0,0,1-1.65-.06,1.53,1.53,0,0,1-.79-.79c-.1-.25-.07-.4,0-.41s.19.58,1,.86a1.87,1.87,0,0,0,1.35-.05,5.21,5.21,0,0,0,1.5-1A13.55,13.55,0,0,0,241.24,239.49Z" style="fill:#ff9a6a"></path><path d="M244.06,255.1s-.13.24-.48.55a6.7,6.7,0,0,1-1.67,1.07,25.19,25.19,0,0,1-6.29,1.52c-2.49.4-4.74.74-6.38,1a13.76,13.76,0,0,1-2.66.25,13.27,13.27,0,0,1,2.6-.62c1.62-.31,3.87-.7,6.35-1.11a31,31,0,0,0,6.23-1.34A14.34,14.34,0,0,0,244.06,255.1Z" style="fill:#ff9a6a"></path><path d="M236.18,133.05a37.19,37.19,0,0,1-6.07-1.31,37.18,37.18,0,0,1-5.93-1.83,37.94,37.94,0,0,1,6.06,1.32A37.74,37.74,0,0,1,236.18,133.05Z" style="fill:#263238"></path><path d="M156.61,166a2.21,2.21,0,0,0-1-2.4,1.62,1.62,0,0,0,1.84-1.5,2.55,2.55,0,0,0-.79-2.51,1.82,1.82,0,0,0,1.79-1.66,2.31,2.31,0,0,0-1.5-2.37,1.82,1.82,0,0,0,2.08-1.26c.39-1.53-1.29-2.31-1.29-2.31l1.88-1.36.93-5.77a2.18,2.18,0,0,0-.48-1.77l-4.32-5.23L149,136.73l-1-.16-5.75,3.61a2.22,2.22,0,0,0-1,1.53l-.93,5.77,1.36,1.88s-1.84.21-2,1.79,1.58,1.84,1.58,1.84a2.31,2.31,0,0,0-2.17,1.79,1.81,1.81,0,0,0,1.18,2.13,2.54,2.54,0,0,0-1.54,2.14,1.61,1.61,0,0,0,1.27,2,2.22,2.22,0,0,0-1.71,2,2,2,0,0,0,1,2.29l-2.15,1.7-2,12.22a3.6,3.6,0,0,0,3.21,3.1,3.25,3.25,0,0,0,3.79-2.17s-.38,2.67,2.08,3.12l.33,0c2.48.35,3-2.31,3-2.31a3.25,3.25,0,0,0,2.91,3.26,3.61,3.61,0,0,0,4-1.94l2-12.22L155,167.83A2,2,0,0,0,156.61,166Z" style="fill:#e0e0e0"></path><rect x="147.69" y="132.94" width="9.07" height="4.28" rx="0.64" transform="translate(23.47 -22.53) rotate(9.17)" style="fill:#263238"></rect><path d="M157.72,152a65.85,65.85,0,0,1-8.33-1.08,69,69,0,0,1-8.24-1.59,68.13,68.13,0,0,1,8.33,1.08A69,69,0,0,1,157.72,152Z" style="fill:#263238"></path><path d="M159.48,150.58a89.25,89.25,0,0,1-9.62-1.29,91,91,0,0,1-9.53-1.8,92.39,92.39,0,0,1,9.62,1.29A91,91,0,0,1,159.48,150.58Z" style="fill:#263238"></path><path d="M157.32,155.71a67.79,67.79,0,0,1-8.27-1.07,67.72,67.72,0,0,1-8.19-1.58,63.36,63.36,0,0,1,8.27,1.07A67.72,67.72,0,0,1,157.32,155.71Z" style="fill:#263238"></path><path d="M156.71,159.43a63.54,63.54,0,0,1-8.26-1.07,67.21,67.21,0,0,1-8.19-1.58,67.79,67.79,0,0,1,8.27,1.07A66.78,66.78,0,0,1,156.71,159.43Z" style="fill:#263238"></path><path d="M156.05,163.54a63.79,63.79,0,0,1-8.27-1.07,67.28,67.28,0,0,1-8.18-1.58,68.29,68.29,0,0,1,8.27,1.07A67.28,67.28,0,0,1,156.05,163.54Z" style="fill:#263238"></path><path d="M155.39,167.65a63.36,63.36,0,0,1-8.27-1.07,66.78,66.78,0,0,1-8.18-1.58,65.7,65.7,0,0,1,8.26,1.07A67.21,67.21,0,0,1,155.39,167.65Z" style="fill:#263238"></path><path d="M156.45,170.2a92.7,92.7,0,0,1-9.69-1.3,91.85,91.85,0,0,1-9.61-1.82,92.7,92.7,0,0,1,9.69,1.3A91.19,91.19,0,0,1,156.45,170.2Z" style="fill:#263238"></path><path d="M140.83,152s-4.83,1.69-5,3.92-4.91,16.48-4.91,16.48L109.6,183.39,90,178s-9.74,19.3-11.1,25.09c-1.06,4.49-1.16,18,4.66,19.8,8,2.49,19.77-3.52,26.26-8.93,9.42-7.85,28.48-26.39,31.13-32.13a92.33,92.33,0,0,0,4.36-11.78Z" style="fill:#ffccb3"></path><path d="M140.83,152s11.89-2.8,12.72-2.2,5.78,6.54,5.76,7.65-1.49,3.47-1.49,3.47,1.66,5.21-2.42,7c0,0,3,2.2,1.93,4.83a7.35,7.35,0,0,1-2.21,2.66l-.72-3.34-6.18-2h0L145,171l-5-8Z" style="fill:#ffccb3"></path><path d="M155,168a3.94,3.94,0,0,0-.62-1.66c-.62-.94-2.1-1.47-3.84-1.86-3.46-.9-6.23-1.78-6.18-2s2.89.39,6.35,1.28a12.81,12.81,0,0,1,2.45.82A3.82,3.82,0,0,1,154.8,166C155.47,167.17,155.08,168,155,168Z" style="fill:#ff9a6a"></path><path d="M156,167.25a9.59,9.59,0,0,1-.13-2.55,8.21,8.21,0,0,0-.17-2.6c-.33-.81-1.53-1-2.7-1.22-4.68-1-8.44-2-8.4-2.23s3.87.51,8.55,1.55a15.28,15.28,0,0,1,1.74.44,2.26,2.26,0,0,1,1.4,1.2,3.64,3.64,0,0,1,.17,1.59c0,.44-.07.87-.1,1.29A9,9,0,0,1,156,167.25Z" style="fill:#ff9a6a"></path><path d="M158,160.94c-.09.06-.59-.75-.89-2.16a7.56,7.56,0,0,0-.83-2.25,2.7,2.7,0,0,0-2.32-1.26c-4.31-.1-7.85-.25-7.85-.45s3.52-.35,7.92-.24a4.19,4.19,0,0,1,1.65.45,3.14,3.14,0,0,1,1.15,1.17,7.08,7.08,0,0,1,.76,2.48C157.72,160.1,158,160.89,158,160.94Z" style="fill:#ff9a6a"></path><path d="M116.74,180.06a31.53,31.53,0,0,1-3.95,2.16l-9.62,5c-3.64,2-6.93,3.73-9.54,5.15a30.73,30.73,0,0,1-4,2,26.89,26.89,0,0,1,3.76-2.47c2.38-1.44,5.72-3.35,9.47-5.33s7.2-3.67,9.73-4.83A25.67,25.67,0,0,1,116.74,180.06Z" style="fill:#ff9a6a"></path></g></svg>